<svg t="1708483674318" class="icon" viewBox="0 0 1024 1024" version="1.1" xmlns="http://www.w3.org/2000/svg" p-id="7153" width="48" height="48"><path d="M214.654939 810.97913a425.984 425.984 0 1 0 602.421836-602.442865 425.984 425.984 0 1 0-602.421836 602.442865Z" fill="#00A0E9" p-id="7154"></path><path d="M913.1008 663.4496l-275.2-101.9392c21.7088-39.6288 36.1984-79.9232 44.1856-123.0848l1.024-5.4784h-118.6304V400.896h142.4896v-37.0688h-143.0016V297.1648H485.888v63.5392H351.2832v36.7104h132.1472v34.7648H377.6512v30.72h220.0064c-0.1024 0.6656-0.2048 1.3312-0.3584 2.048l-0.3072 1.8944c-2.9696 19.4048-10.8544 37.7344-18.432 55.5008l-3.2768 7.7312c-2.4576 5.7856-4.096 9.6256-5.7344 10.3936-1.9968 0.9216-7.3216-0.0512-15.1552-1.6896-0.9216-0.2048-1.792-0.512-2.6624-0.8192-0.5632-0.2048-1.1776-0.4096-1.792-0.6144-8.448-2.6624-16.8448-5.3248-25.2928-8.0384a5106.4832 5106.4832 0 0 0-57.344-18.0224c-38.912-11.8784-77.5168-11.3152-114.6368 1.5872-56.2688 19.6096-81.408 72.8576-65.9968 124.4672 11.3664 38.0416 40.5504 61.44 82.176 69.7344 49.3568 9.8304 95.8464 4.5056 138.1888-15.7696 32.8704-15.7696 63.3856-38.656 90.6752-68.1472 2.4576-2.6112 3.0208-2.7136 6.2976-1.0752 21.0432 10.4448 42.5472 20.8384 63.3344 30.8736l198.9632 98.6624c18.8928-27.2896 34.6112-56.832 46.7968-88.1664z m-375.4496-68.5568c-26.5216 26.624-59.4432 55.1424-103.1168 65.1776-36.8128 8.448-67.84 4.3008-94.8224-12.7488-14.4896-9.1648-23.1936-27.4432-22.1696-46.6432 1.024-18.8416 11.2128-34.4064 28.0064-42.6496 16.1792-7.936 33.8944-11.8784 53.7088-11.8784 8.4992 0 17.3568 0.7168 26.6752 2.1504 36.096 5.5808 72.0384 18.432 116.224 41.6256-1.4848 1.7408-2.9184 3.4304-4.5056 4.9664z" fill="#FFFFFF" p-id="7155"></path></svg>