<svg t="1708484508795" class="icon" viewBox="0 0 1325 1024" version="1.1" xmlns="http://www.w3.org/2000/svg" p-id="7723" width="48" height="48"><path d="M164.141176 90.352941H1159.529412c42.164706 0 75.294118 33.129412 75.294117 73.788235V858.352941c0 40.658824-33.129412 73.788235-73.788235 73.788235H164.141176C123.482353 933.647059 90.352941 900.517647 90.352941 859.858824V164.141176C90.352941 123.482353 123.482353 90.352941 164.141176 90.352941z" fill="#243747" p-id="7724"></path><path d="M339.154824 512.361412a198.776471 198.776471 0 1 0 397.552941 0 198.776471 198.776471 0 1 0-397.552941 0Z" fill="#E61C24" p-id="7725"></path><path d="M586.119529 512.361412a198.776471 198.776471 0 1 0 397.552942 0 198.776471 198.776471 0 1 0-397.552942 0Z" fill="#F99F1B" p-id="7726"></path><path d="M661.413647 357.255529c-48.188235 37.647059-75.294118 94.870588-75.294118 155.105883s27.105882 117.458824 75.294118 155.105882c48.188235-37.647059 75.294118-94.870588 75.294118-155.105882s-27.105882-117.458824-75.294118-155.105883z" fill="#F26622" p-id="7727"></path></svg>