<svg t="1708484466163" class="icon" viewBox="0 0 1325 1024" version="1.1" xmlns="http://www.w3.org/2000/svg" p-id="7468" width="48" height="48"><path d="M1159.529412 90.352941H165.647059c-42.164706 0-75.294118 33.129412-75.294118 73.788235V858.352941c0 42.164706 33.129412 75.294118 75.294118 75.294118h993.882353c40.658824 0 75.294118-33.129412 75.294117-73.788235V164.141176C1234.823529 123.482353 1201.694118 90.352941 1159.529412 90.352941z" fill="#E6E6E6" p-id="7469"></path><path d="M813.176471 391.529412h-69.270589c-4.517647 0-9.035294 3.011765-9.035294 7.529412l-27.105882 180.705882c0 3.011765 1.505882 7.529412 6.023529 7.529412h34.635294c3.011765 0 6.023529-3.011765 6.02353-6.02353l7.529412-51.2c0-4.517647 4.517647-7.529412 9.035294-7.529412h21.082353c45.176471 0 70.776471-22.588235 78.305882-66.258823 3.011765-19.576471 0-34.635294-9.035294-45.176471-7.529412-13.552941-25.6-19.576471-48.188235-19.57647z m7.529411 66.258823c-3.011765 25.6-22.588235 25.6-40.658823 25.6h-10.541177l7.529412-46.682353c0-3.011765 3.011765-4.517647 6.02353-4.517647 15.058824 0 28.611765 0 34.635294 7.529412 4.517647 3.011765 4.517647 9.035294 3.011764 18.070588z" fill="#009EE3" p-id="7470"></path><path d="M316.235294 391.529412h-69.270588c-4.517647 0-9.035294 3.011765-9.035294 7.529412l-27.105883 180.705882c0 4.517647 1.505882 7.529412 6.02353 7.529412h33.129412c4.517647 0 9.035294-3.011765 9.035294-7.529412l7.529411-48.188235c0-4.517647 4.517647-7.529412 9.035295-7.529412h21.082353c45.176471 0 70.776471-22.588235 78.305882-66.258824 3.011765-19.576471 0-34.635294-9.035294-45.17647-9.035294-15.058824-27.105882-21.082353-49.694118-21.082353z m7.529412 66.258823c-3.011765 25.6-22.588235 25.6-40.658824 25.6h-10.541176l7.529412-46.682353c0-3.011765 3.011765-4.517647 6.023529-4.517647h4.517647c12.047059 0 24.094118 0 30.117647 7.529412 4.517647 3.011765 4.517647 9.035294 3.011765 18.070588zM536.094118 454.776471h-33.129412c-3.011765 0-6.023529 1.505882-6.02353 4.517647l-1.505882 9.035294c-3.011765-4.517647-10.541176-18.070588-42.164706-18.070588-37.647059 0-69.270588 28.611765-75.294117 67.764705-3.011765 19.576471 1.505882 37.647059 12.047058 51.2 10.541176 12.047059 25.6 16.564706 42.164706 16.564706 30.117647 0 46.682353-19.576471 46.682353-19.57647l-1.505882 9.035294c0 3.011765 1.505882 6.023529 6.023529 6.023529h30.117647c4.517647 0 9.035294-3.011765 9.035294-7.529412l18.070589-114.447058c1.505882-1.505882-1.505882-4.517647-4.517647-4.517647z m-46.682353 64.752941c-3.011765 19.576471-18.070588 31.623529-37.647059 31.623529-10.541176 0-18.070588-3.011765-22.588235-9.035294-4.517647-6.023529-7.529412-13.552941-6.02353-24.094118 3.011765-19.576471 18.070588-31.623529 37.647059-31.623529 9.035294 0 18.070588 3.011765 22.588235 9.035294 4.517647 7.529412 7.529412 15.058824 6.02353 24.094118z" fill="#113984" p-id="7471"></path><path d="M1033.035294 454.776471h-33.129412c-3.011765 0-6.023529 1.505882-6.023529 4.517647l-1.505882 9.035294c-3.011765-4.517647-10.541176-18.070588-42.164706-18.070588-37.647059 0-69.270588 28.611765-75.294118 67.764705-3.011765 19.576471 1.505882 37.647059 12.047059 51.2 10.541176 12.047059 25.6 16.564706 42.164706 16.564706 30.117647 0 46.682353-19.576471 46.682353-19.57647l-1.505883 9.035294c0 3.011765 1.505882 6.023529 6.02353 6.023529h30.117647c4.517647 0 9.035294-3.011765 9.035294-7.529412l18.070588-114.447058c1.505882-1.505882-1.505882-4.517647-4.517647-4.517647z m-46.682353 64.752941c-3.011765 19.576471-18.070588 31.623529-37.647059 31.623529-10.541176 0-18.070588-3.011765-22.588235-9.035294-4.517647-6.023529-7.529412-13.552941-6.023529-24.094118 3.011765-19.576471 18.070588-31.623529 37.647058-31.623529 9.035294 0 18.070588 3.011765 22.588236 9.035294 4.517647 7.529412 7.529412 15.058824 6.023529 24.094118z" fill="#009EE3" p-id="7472"></path><path d="M716.8 451.764706h-34.635294c-3.011765 0-6.023529 1.505882-7.529412 4.517647L626.447059 527.058824l-19.576471-67.764706c-1.505882-4.517647-4.517647-7.529412-9.035294-7.529412h-33.129412c-4.517647 0-7.529412 4.517647-6.023529 7.529412l37.647059 112.941176-36.141177 51.2c-3.011765 4.517647 0 9.035294 4.517647 9.035294h34.635294c3.011765 0 6.023529-1.505882 7.529412-4.517647l114.447059-167.152941c3.011765-3.011765 0-9.035294-4.517647-9.035294z" fill="#113984" p-id="7473"></path><path d="M1069.176471 396.047059l-30.117647 183.717647c0 3.011765 1.505882 7.529412 6.023529 7.529412h30.117647c4.517647 0 9.035294-3.011765 10.541176-7.529412l28.611765-180.705882c0-3.011765-1.505882-7.529412-6.023529-7.529412h-33.129412c-3.011765 0-6.023529 1.505882-6.023529 4.517647z" fill="#009EE3" p-id="7474"></path></svg>